<mxfile host="65bd71144e">
    <diagram id="DLWCyUE3R5YeVllsptqZ" name="HighLevelStructureDiagram">
        <mxGraphModel dx="1116" dy="754" grid="1" gridSize="10" guides="1" tooltips="1" connect="1" arrows="1" fold="1" page="1" pageScale="1" pageWidth="1654" pageHeight="1169" background="none" math="0" shadow="0">
            <root>
                <mxCell id="0"/>
                <mxCell id="1" parent="0"/>
                <mxCell id="16" value="" style="edgeStyle=orthogonalEdgeStyle;html=1;fontSize=13;endArrow=none;endFill=0;fillColor=#f8cecc;strokeColor=#b85450;" parent="1" source="2" target="9" edge="1">
                    <mxGeometry relative="1" as="geometry"/>
                </mxCell>
                <mxCell id="18" value="" style="edgeStyle=orthogonalEdgeStyle;html=1;fontSize=13;endArrow=none;endFill=0;" parent="1" source="2" target="3" edge="1">
                    <mxGeometry relative="1" as="geometry"/>
                </mxCell>
                <mxCell id="29" style="html=1;exitX=0;exitY=0.25;exitDx=0;exitDy=0;entryX=0;entryY=0.75;entryDx=0;entryDy=0;strokeWidth=1;fontSize=13;startArrow=none;startFill=0;endArrow=none;endFill=0;startSize=6;endSize=2;fillColor=#f8cecc;strokeColor=#b85450;edgeStyle=orthogonalEdgeStyle;rounded=0;" parent="1" source="2" target="3" edge="1">
                    <mxGeometry relative="1" as="geometry">
                        <Array as="points">
                            <mxPoint x="560" y="460"/>
                            <mxPoint x="530" y="460"/>
                            <mxPoint x="530" y="382"/>
                        </Array>
                    </mxGeometry>
                </mxCell>
                <mxCell id="30" style="edgeStyle=orthogonalEdgeStyle;rounded=0;html=1;exitX=0;exitY=0.25;exitDx=0;exitDy=0;entryX=0;entryY=0.75;entryDx=0;entryDy=0;strokeWidth=1;fontSize=13;startArrow=none;startFill=0;endArrow=none;endFill=0;startSize=6;endSize=2;fillColor=#f8cecc;strokeColor=#b85450;" parent="1" source="2" target="4" edge="1">
                    <mxGeometry relative="1" as="geometry">
                        <Array as="points">
                            <mxPoint x="560" y="470"/>
                            <mxPoint x="520" y="470"/>
                            <mxPoint x="520" y="262"/>
                        </Array>
                    </mxGeometry>
                </mxCell>
                <mxCell id="31" style="edgeStyle=orthogonalEdgeStyle;rounded=0;html=1;exitX=1;exitY=0.25;exitDx=0;exitDy=0;entryX=0;entryY=0.25;entryDx=0;entryDy=0;strokeWidth=1;fontSize=13;startArrow=none;startFill=0;endArrow=none;endFill=0;startSize=6;endSize=2;fillColor=#f8cecc;strokeColor=#b85450;" parent="1" source="2" target="9" edge="1">
                    <mxGeometry relative="1" as="geometry"/>
                </mxCell>
                <mxCell id="32" style="edgeStyle=orthogonalEdgeStyle;rounded=0;html=1;exitX=1;exitY=0.75;exitDx=0;exitDy=0;entryX=0;entryY=0.75;entryDx=0;entryDy=0;strokeWidth=1;fontSize=13;startArrow=none;startFill=0;endArrow=none;endFill=0;startSize=6;endSize=2;fillColor=#f8cecc;strokeColor=#b85450;" parent="1" source="2" target="9" edge="1">
                    <mxGeometry relative="1" as="geometry"/>
                </mxCell>
                <mxCell id="2" value="&lt;b style=&quot;font-size: 15px;&quot;&gt;Level 1&lt;br&gt;&lt;/b&gt;Communication / Control" style="rounded=0;whiteSpace=wrap;html=1;fillColor=#d5e8d4;strokeColor=#82b366;" parent="1" vertex="1">
                    <mxGeometry x="560" y="450" width="240" height="70" as="geometry"/>
                </mxCell>
                <mxCell id="17" value="" style="edgeStyle=orthogonalEdgeStyle;html=1;fontSize=13;endArrow=none;endFill=0;" parent="1" source="3" target="4" edge="1">
                    <mxGeometry relative="1" as="geometry"/>
                </mxCell>
                <mxCell id="26" value="" style="edgeStyle=orthogonalEdgeStyle;html=1;fontSize=13;endArrow=none;endFill=0;" parent="1" source="3" target="7" edge="1">
                    <mxGeometry relative="1" as="geometry"/>
                </mxCell>
                <mxCell id="3" value="&lt;b style=&quot;font-size: 15px;&quot;&gt;Level 2&lt;br&gt;&lt;/b&gt;Decision algorithms / Navigation" style="rounded=0;whiteSpace=wrap;html=1;fillColor=#d5e8d4;strokeColor=#82b366;" parent="1" vertex="1">
                    <mxGeometry x="560" y="330" width="240" height="70" as="geometry"/>
                </mxCell>
                <mxCell id="15" value="" style="edgeStyle=orthogonalEdgeStyle;html=1;fontSize=13;endArrow=none;endFill=0;" parent="1" source="4" target="8" edge="1">
                    <mxGeometry relative="1" as="geometry"/>
                </mxCell>
                <mxCell id="4" value="&lt;b style=&quot;font-size: 15px;&quot;&gt;Level 3&lt;br&gt;&lt;/b&gt;Scientific systems" style="rounded=0;whiteSpace=wrap;html=1;fillColor=#d5e8d4;strokeColor=#82b366;shadow=0;glass=0;sketch=1;curveFitting=1;jiggle=2;" parent="1" vertex="1">
                    <mxGeometry x="560" y="210" width="240" height="70" as="geometry"/>
                </mxCell>
                <mxCell id="12" style="edgeStyle=orthogonalEdgeStyle;html=1;exitX=1;exitY=0.5;exitDx=0;exitDy=0;entryX=0;entryY=0.5;entryDx=0;entryDy=0;fontSize=13;rounded=0;endArrow=none;endFill=0;" parent="1" source="6" target="3" edge="1">
                    <mxGeometry relative="1" as="geometry"/>
                </mxCell>
                <mxCell id="13" style="edgeStyle=orthogonalEdgeStyle;html=1;exitX=1;exitY=0.5;exitDx=0;exitDy=0;entryX=0;entryY=0.5;entryDx=0;entryDy=0;fontSize=13;rounded=0;endArrow=none;endFill=0;" parent="1" source="6" target="2" edge="1">
                    <mxGeometry relative="1" as="geometry"/>
                </mxCell>
                <mxCell id="6" value="&lt;font style=&quot;font-size: 13px;&quot;&gt;&lt;b&gt;Communication&lt;/b&gt;&lt;br&gt;Iridium / AIS / LoRa / Modem 4G /&amp;nbsp;&lt;/font&gt;" style="rounded=0;whiteSpace=wrap;html=1;fontSize=15;" parent="1" vertex="1">
                    <mxGeometry x="210" y="390" width="240" height="70" as="geometry"/>
                </mxCell>
                <mxCell id="27" style="edgeStyle=orthogonalEdgeStyle;html=1;exitX=0.25;exitY=1;exitDx=0;exitDy=0;entryX=0.5;entryY=0;entryDx=0;entryDy=0;fontSize=13;endArrow=classic;endFill=1;strokeWidth=1;endSize=2;startSize=6;" parent="1" source="7" target="23" edge="1">
                    <mxGeometry relative="1" as="geometry">
                        <Array as="points"/>
                    </mxGeometry>
                </mxCell>
                <mxCell id="7" value="&lt;b style=&quot;font-size: 13px;&quot;&gt;Sensors&lt;/b&gt;&lt;br style=&quot;font-size: 13px;&quot;&gt;GPS / Meteo station / IMU / Cameras / LIDAR / SONAR&amp;nbsp;" style="rounded=0;whiteSpace=wrap;html=1;fontSize=13;" parent="1" vertex="1">
                    <mxGeometry x="840" y="330" width="240" height="70" as="geometry"/>
                </mxCell>
                <mxCell id="8" value="&lt;b&gt;Sensors&lt;br&gt;&lt;/b&gt;Probes and sensors" style="rounded=0;whiteSpace=wrap;html=1;fontSize=13;" parent="1" vertex="1">
                    <mxGeometry x="840" y="210" width="240" height="70" as="geometry"/>
                </mxCell>
                <mxCell id="9" value="&lt;b&gt;Harware&lt;br&gt;&lt;/b&gt;Batteries / Photovoltaic panels / Motors / Actuators&lt;span style=&quot;color: rgba(0, 0, 0, 0); font-family: monospace; font-size: 0px; text-align: start;&quot;&gt;%3CmxGraphModel%3E%3Croot%3E%3CmxCell%20id%3D%220%22%2F%3E%3CmxCell%20id%3D%221%22%20parent%3D%220%22%2F%3E%3CmxCell%20id%3D%222%22%20value%3D%22%26lt%3Bb%20style%3D%26quot%3Bfont-size%3A%2013px%3B%26quot%3B%26gt%3BSensors%26lt%3B%2Fb%26gt%3B%26lt%3Bbr%20style%3D%26quot%3Bfont-size%3A%2013px%3B%26quot%3B%26gt%3BGPS%20%2F%20Meteo%20station%20%2F%20IMU%20%2F%20Cameras%20%2F%20LIDAR%20%2F%20SONAR%26amp%3Bnbsp%3B%22%20style%3D%22rounded%3D0%3BwhiteSpace%3Dwrap%3Bhtml%3D1%3BfontSize%3D13%3B%22%20vertex%3D%221%22%20parent%3D%221%22%3E%3CmxGeometry%20x%3D%22840%22%20y%3D%22330%22%20width%3D%22240%22%20height%3D%2270%22%20as%3D%22geometry%22%2F%3E%3C%2FmxCell%3E%3C%2Froot%3E%3C%2FmxGraphModel%3E&lt;/span&gt;" style="rounded=0;whiteSpace=wrap;html=1;fontSize=13;" parent="1" vertex="1">
                    <mxGeometry x="840" y="450" width="240" height="70" as="geometry"/>
                </mxCell>
                <mxCell id="19" value="" style="rounded=0;whiteSpace=wrap;html=1;fillColor=#d5e8d4;strokeColor=#82b366;" parent="1" vertex="1">
                    <mxGeometry x="210" y="220" width="100" height="20" as="geometry"/>
                </mxCell>
                <mxCell id="20" value="&lt;b style=&quot;border-color: var(--border-color); color: rgb(0, 0, 0); font-family: Helvetica; font-size: 15px; font-style: normal; font-variant-ligatures: normal; font-variant-caps: normal; letter-spacing: normal; orphans: 2; text-align: center; text-indent: 0px; text-transform: none; widows: 2; word-spacing: 0px; -webkit-text-stroke-width: 0px; background-color: rgb(251, 251, 251); text-decoration-thickness: initial; text-decoration-style: initial; text-decoration-color: initial;&quot;&gt;LattePanda Alpha&lt;/b&gt;" style="text;whiteSpace=wrap;html=1;fontSize=13;verticalAlign=middle;" parent="1" vertex="1">
                    <mxGeometry x="320" y="210" width="160" height="40" as="geometry"/>
                </mxCell>
                <mxCell id="21" value="" style="rounded=0;whiteSpace=wrap;html=1;fillColor=#fff2cc;strokeColor=#d6b656;" parent="1" vertex="1">
                    <mxGeometry x="210" y="250" width="100" height="20" as="geometry"/>
                </mxCell>
                <mxCell id="22" value="&lt;b style=&quot;border-color: var(--border-color); color: rgb(0, 0, 0); font-family: Helvetica; font-size: 15px; font-style: normal; font-variant-ligatures: normal; font-variant-caps: normal; letter-spacing: normal; orphans: 2; text-align: center; text-indent: 0px; text-transform: none; widows: 2; word-spacing: 0px; -webkit-text-stroke-width: 0px; background-color: rgb(251, 251, 251); text-decoration-thickness: initial; text-decoration-style: initial; text-decoration-color: initial;&quot;&gt;Jetson Nano&lt;/b&gt;" style="text;whiteSpace=wrap;html=1;fontSize=13;verticalAlign=middle;" parent="1" vertex="1">
                    <mxGeometry x="320" y="240" width="160" height="40" as="geometry"/>
                </mxCell>
                <mxCell id="28" style="edgeStyle=orthogonalEdgeStyle;html=1;exitX=0;exitY=0.5;exitDx=0;exitDy=0;entryX=1;entryY=0.75;entryDx=0;entryDy=0;fontSize=13;endArrow=classic;endFill=1;endSize=2;" parent="1" source="23" target="3" edge="1">
                    <mxGeometry relative="1" as="geometry"/>
                </mxCell>
                <mxCell id="23" value="&lt;b&gt;Processing&lt;/b&gt;" style="rounded=0;whiteSpace=wrap;html=1;fontSize=13;fillColor=#fff2cc;strokeColor=#d6b656;" parent="1" vertex="1">
                    <mxGeometry x="840" y="410" width="120" height="30" as="geometry"/>
                </mxCell>
            </root>
        </mxGraphModel>
    </diagram>
    <diagram id="J9IXLWDCMLGtO6kLIXqj" name="Level1Diagram">
        <mxGraphModel dx="1116" dy="754" grid="1" gridSize="5" guides="1" tooltips="1" connect="1" arrows="1" fold="1" page="1" pageScale="1" pageWidth="1654" pageHeight="1169" math="0" shadow="0">
            <root>
                <mxCell id="0"/>
                <mxCell id="1" parent="0"/>
                <mxCell id="iTRLX2iwyvGH0JloViwW-57" value="&lt;font style=&quot;font-size: 10px;&quot;&gt;Battery pack (24V - 200Ah)&lt;/font&gt;" style="rounded=0;whiteSpace=wrap;html=1;strokeColor=#4D4D4D;fillColor=none;dashed=1;dashPattern=8 8;verticalAlign=bottom;align=right;" parent="1" vertex="1">
                    <mxGeometry x="660" y="300" width="240" height="205" as="geometry"/>
                </mxCell>
                <mxCell id="iTRLX2iwyvGH0JloViwW-41" style="edgeStyle=orthogonalEdgeStyle;rounded=0;html=1;exitX=0.5;exitY=1;exitDx=0;exitDy=0;entryX=0.25;entryY=0;entryDx=0;entryDy=0;endArrow=none;endFill=0;fillColor=#d5e8d4;strokeColor=#00FF00;" parent="1" source="iTRLX2iwyvGH0JloViwW-1" target="iTRLX2iwyvGH0JloViwW-3" edge="1">
                    <mxGeometry relative="1" as="geometry">
                        <Array as="points">
                            <mxPoint x="295" y="335"/>
                            <mxPoint x="420" y="335"/>
                        </Array>
                    </mxGeometry>
                </mxCell>
                <mxCell id="iTRLX2iwyvGH0JloViwW-58" value="Information" style="edgeLabel;html=1;align=center;verticalAlign=middle;resizable=0;points=[];fontSize=8;fontColor=#00FF00;fontStyle=3;labelBackgroundColor=none;rounded=0;" parent="iTRLX2iwyvGH0JloViwW-41" vertex="1" connectable="0">
                    <mxGeometry x="0.1152" relative="1" as="geometry">
                        <mxPoint x="2" y="-5" as="offset"/>
                    </mxGeometry>
                </mxCell>
                <mxCell id="qoRzXvIuK7zQw0bLxEC5-14" style="edgeStyle=orthogonalEdgeStyle;rounded=0;jumpStyle=none;jumpSize=7;html=1;exitX=0.5;exitY=0;exitDx=0;exitDy=0;entryX=0;entryY=0.5;entryDx=0;entryDy=0;strokeColor=#00FF00;strokeWidth=1;fontFamily=Helvetica;fontSize=6;fontColor=#FF0000;endArrow=none;endFill=0;targetPerimeterSpacing=0;" parent="1" source="iTRLX2iwyvGH0JloViwW-1" target="iTRLX2iwyvGH0JloViwW-31" edge="1">
                    <mxGeometry relative="1" as="geometry"/>
                </mxCell>
                <mxCell id="iTRLX2iwyvGH0JloViwW-1" value="LattePanda Alpha (PC)" style="rounded=0;whiteSpace=wrap;html=1;" parent="1" vertex="1">
                    <mxGeometry x="235" y="240" width="120" height="60" as="geometry"/>
                </mxCell>
                <mxCell id="iTRLX2iwyvGH0JloViwW-2" value="Battery LiFePO4&lt;br&gt;12 V - 100 Ah" style="rounded=0;whiteSpace=wrap;html=1;" parent="1" vertex="1">
                    <mxGeometry x="720" y="407" width="120" height="60" as="geometry"/>
                </mxCell>
                <mxCell id="iTRLX2iwyvGH0JloViwW-29" style="edgeStyle=orthogonalEdgeStyle;rounded=0;html=1;exitX=1;exitY=0.25;exitDx=0;exitDy=0;entryX=0;entryY=0.5;entryDx=0;entryDy=0;entryPerimeter=0;endArrow=none;endFill=0;strokeColor=#FF0000;" parent="1" source="iTRLX2iwyvGH0JloViwW-3" target="iTRLX2iwyvGH0JloViwW-28" edge="1">
                    <mxGeometry relative="1" as="geometry"/>
                </mxCell>
                <mxCell id="iTRLX2iwyvGH0JloViwW-51" style="edgeStyle=orthogonalEdgeStyle;rounded=0;html=1;exitX=1;exitY=0.75;exitDx=0;exitDy=0;strokeColor=#000000;endArrow=none;endFill=0;" parent="1" source="iTRLX2iwyvGH0JloViwW-3" edge="1">
                    <mxGeometry relative="1" as="geometry">
                        <mxPoint x="690" y="415.28571428571433" as="targetPoint"/>
                    </mxGeometry>
                </mxCell>
                <mxCell id="iTRLX2iwyvGH0JloViwW-3" value="Charge controler&lt;br&gt;MPPT 150 | 35" style="rounded=0;whiteSpace=wrap;html=1;" parent="1" vertex="1">
                    <mxGeometry x="390" y="370" width="120" height="60" as="geometry"/>
                </mxCell>
                <mxCell id="iTRLX2iwyvGH0JloViwW-55" style="edgeStyle=orthogonalEdgeStyle;rounded=0;html=1;exitX=1;exitY=0.25;exitDx=0;exitDy=0;strokeColor=#FF0000;endArrow=none;endFill=0;" parent="1" source="iTRLX2iwyvGH0JloViwW-4" edge="1">
                    <mxGeometry relative="1" as="geometry">
                        <mxPoint x="625" y="385" as="targetPoint"/>
                        <Array as="points">
                            <mxPoint x="625" y="485"/>
                        </Array>
                    </mxGeometry>
                </mxCell>
                <mxCell id="iTRLX2iwyvGH0JloViwW-56" style="edgeStyle=orthogonalEdgeStyle;rounded=0;html=1;exitX=1;exitY=0.75;exitDx=0;exitDy=0;strokeColor=#000000;endArrow=none;endFill=0;" parent="1" source="iTRLX2iwyvGH0JloViwW-4" edge="1">
                    <mxGeometry relative="1" as="geometry">
                        <mxPoint x="645" y="415" as="targetPoint"/>
                        <Array as="points">
                            <mxPoint x="645" y="515"/>
                            <mxPoint x="645" y="415"/>
                        </Array>
                    </mxGeometry>
                </mxCell>
                <mxCell id="iTRLX2iwyvGH0JloViwW-4" value="Sector charger" style="rounded=0;whiteSpace=wrap;html=1;" parent="1" vertex="1">
                    <mxGeometry x="390" y="470" width="120" height="60" as="geometry"/>
                </mxCell>
                <mxCell id="iTRLX2iwyvGH0JloViwW-5" value="" style="rounded=0;whiteSpace=wrap;html=1;verticalAlign=middle;align=center;" parent="1" vertex="1">
                    <mxGeometry x="144" y="365" width="120" height="60" as="geometry"/>
                </mxCell>
                <mxCell id="iTRLX2iwyvGH0JloViwW-18" style="html=1;exitX=1;exitY=0.75;exitDx=0;exitDy=0;entryX=0;entryY=0.75;entryDx=0;entryDy=0;endArrow=none;endFill=0;rounded=0;" parent="1" source="iTRLX2iwyvGH0JloViwW-6" target="iTRLX2iwyvGH0JloViwW-3" edge="1">
                    <mxGeometry relative="1" as="geometry"/>
                </mxCell>
                <mxCell id="iTRLX2iwyvGH0JloViwW-26" style="edgeStyle=orthogonalEdgeStyle;rounded=0;html=1;exitX=1;exitY=0.25;exitDx=0;exitDy=0;entryX=0;entryY=0.5;entryDx=0;entryDy=0;entryPerimeter=0;endArrow=none;endFill=0;strokeColor=#FF0000;" parent="1" source="iTRLX2iwyvGH0JloViwW-6" target="iTRLX2iwyvGH0JloViwW-25" edge="1">
                    <mxGeometry relative="1" as="geometry"/>
                </mxCell>
                <mxCell id="iTRLX2iwyvGH0JloViwW-6" value="Solar panel 1 &amp;amp; 2&lt;br&gt;(in parallele)" style="rounded=0;whiteSpace=wrap;html=1;" parent="1" vertex="1">
                    <mxGeometry x="140" y="370" width="120" height="60" as="geometry"/>
                </mxCell>
                <mxCell id="iTRLX2iwyvGH0JloViwW-27" style="edgeStyle=orthogonalEdgeStyle;rounded=0;html=1;exitX=1;exitY=0.5;exitDx=0;exitDy=0;exitPerimeter=0;entryX=0;entryY=0.25;entryDx=0;entryDy=0;endArrow=none;endFill=0;strokeColor=#FF0000;" parent="1" source="iTRLX2iwyvGH0JloViwW-25" target="iTRLX2iwyvGH0JloViwW-3" edge="1">
                    <mxGeometry relative="1" as="geometry"/>
                </mxCell>
                <mxCell id="iTRLX2iwyvGH0JloViwW-25" value="" style="pointerEvents=1;verticalLabelPosition=bottom;shadow=0;dashed=0;align=center;html=1;verticalAlign=top;shape=mxgraph.electrical.miscellaneous.fuse_1;fillColor=#FFFFFF;strokeColor=#FF0000;rounded=0;" parent="1" vertex="1">
                    <mxGeometry x="300" y="380" width="50" height="10" as="geometry"/>
                </mxCell>
                <mxCell id="iTRLX2iwyvGH0JloViwW-52" style="edgeStyle=orthogonalEdgeStyle;rounded=0;html=1;exitX=1;exitY=0.5;exitDx=0;exitDy=0;exitPerimeter=0;strokeColor=#FF0000;endArrow=none;endFill=0;" parent="1" source="iTRLX2iwyvGH0JloViwW-28" edge="1">
                    <mxGeometry relative="1" as="geometry">
                        <mxPoint x="670" y="385" as="targetPoint"/>
                    </mxGeometry>
                </mxCell>
                <mxCell id="iTRLX2iwyvGH0JloViwW-28" value="" style="pointerEvents=1;verticalLabelPosition=bottom;shadow=0;dashed=0;align=center;html=1;verticalAlign=top;shape=mxgraph.electrical.miscellaneous.fuse_1;fillColor=#FFFFFF;strokeColor=#FF0000;rounded=0;" parent="1" vertex="1">
                    <mxGeometry x="520" y="380" width="50" height="10" as="geometry"/>
                </mxCell>
                <mxCell id="qoRzXvIuK7zQw0bLxEC5-17" style="edgeStyle=orthogonalEdgeStyle;rounded=0;jumpStyle=none;jumpSize=7;html=1;exitX=1;exitY=0.25;exitDx=0;exitDy=0;strokeColor=#000000;strokeWidth=1;fontFamily=Helvetica;fontSize=6;fontColor=#FF0000;endArrow=none;endFill=0;targetPerimeterSpacing=0;" parent="1" source="iTRLX2iwyvGH0JloViwW-31" edge="1">
                    <mxGeometry relative="1" as="geometry">
                        <mxPoint x="600" y="415" as="targetPoint"/>
                    </mxGeometry>
                </mxCell>
                <mxCell id="iTRLX2iwyvGH0JloViwW-31" value="DC loads" style="rounded=0;whiteSpace=wrap;html=1;" parent="1" vertex="1">
                    <mxGeometry x="390" y="130" width="120" height="60" as="geometry"/>
                </mxCell>
                <mxCell id="qoRzXvIuK7zQw0bLxEC5-7" style="edgeStyle=orthogonalEdgeStyle;rounded=0;html=1;exitX=1;exitY=0.5;exitDx=0;exitDy=0;exitPerimeter=0;entryX=0;entryY=0.8;entryDx=0;entryDy=0;strokeColor=#FF0000;fontFamily=Helvetica;fontSize=9;fontColor=#FF0000;endArrow=none;endFill=0;" parent="1" source="iTRLX2iwyvGH0JloViwW-34" target="qoRzXvIuK7zQw0bLxEC5-5" edge="1">
                    <mxGeometry relative="1" as="geometry"/>
                </mxCell>
                <mxCell id="qoRzXvIuK7zQw0bLxEC5-15" style="edgeStyle=orthogonalEdgeStyle;rounded=0;jumpStyle=none;jumpSize=7;html=1;exitX=0;exitY=0.5;exitDx=0;exitDy=0;exitPerimeter=0;strokeColor=#FF0000;strokeWidth=1;fontFamily=Helvetica;fontSize=6;fontColor=#FF0000;endArrow=none;endFill=0;targetPerimeterSpacing=0;" parent="1" source="iTRLX2iwyvGH0JloViwW-34" edge="1">
                    <mxGeometry relative="1" as="geometry">
                        <mxPoint x="581" y="385" as="targetPoint"/>
                    </mxGeometry>
                </mxCell>
                <mxCell id="iTRLX2iwyvGH0JloViwW-34" value="&lt;font color=&quot;#ff0000&quot; style=&quot;font-size: 6px;&quot;&gt;Fuse&lt;/font&gt;" style="pointerEvents=1;verticalLabelPosition=top;shadow=0;dashed=0;align=center;html=1;verticalAlign=bottom;shape=mxgraph.electrical.miscellaneous.fuse_1;rotation=-90;fillColor=#FFFFFF;strokeColor=#FF0000;labelPosition=center;fontSize=9;rounded=0;" parent="1" vertex="1">
                    <mxGeometry x="556" y="335" width="50" height="10" as="geometry"/>
                </mxCell>
                <mxCell id="iTRLX2iwyvGH0JloViwW-42" value="2 Battery LiFePO4&lt;br&gt;12 V - 100 Ah&lt;br&gt;(in parallel)" style="rounded=0;whiteSpace=wrap;html=1;" parent="1" vertex="1">
                    <mxGeometry x="730" y="417" width="120" height="60" as="geometry"/>
                </mxCell>
                <mxCell id="iTRLX2iwyvGH0JloViwW-43" value="Battery LiFePO4&lt;br&gt;12 V - 100 Ah" style="rounded=0;whiteSpace=wrap;html=1;" parent="1" vertex="1">
                    <mxGeometry x="720" y="323" width="120" height="60" as="geometry"/>
                </mxCell>
                <mxCell id="iTRLX2iwyvGH0JloViwW-48" style="edgeStyle=orthogonalEdgeStyle;rounded=0;html=1;exitX=0;exitY=0.25;exitDx=0;exitDy=0;entryX=0;entryY=0.25;entryDx=0;entryDy=0;strokeColor=#FF0000;endArrow=none;endFill=0;" parent="1" source="iTRLX2iwyvGH0JloViwW-44" target="iTRLX2iwyvGH0JloViwW-42" edge="1">
                    <mxGeometry relative="1" as="geometry">
                        <Array as="points">
                            <mxPoint x="670" y="348"/>
                            <mxPoint x="670" y="432"/>
                        </Array>
                    </mxGeometry>
                </mxCell>
                <mxCell id="iTRLX2iwyvGH0JloViwW-53" style="edgeStyle=orthogonalEdgeStyle;rounded=0;html=1;exitX=1;exitY=0.25;exitDx=0;exitDy=0;entryX=1;entryY=0.25;entryDx=0;entryDy=0;strokeColor=#FF0000;endArrow=none;endFill=0;" parent="1" source="iTRLX2iwyvGH0JloViwW-44" target="iTRLX2iwyvGH0JloViwW-42" edge="1">
                    <mxGeometry relative="1" as="geometry">
                        <Array as="points">
                            <mxPoint x="870" y="348"/>
                            <mxPoint x="870" y="432"/>
                        </Array>
                    </mxGeometry>
                </mxCell>
                <mxCell id="iTRLX2iwyvGH0JloViwW-54" style="edgeStyle=orthogonalEdgeStyle;rounded=0;html=1;exitX=1;exitY=0.75;exitDx=0;exitDy=0;entryX=1;entryY=0.75;entryDx=0;entryDy=0;strokeColor=#000000;endArrow=none;endFill=0;" parent="1" source="iTRLX2iwyvGH0JloViwW-44" target="iTRLX2iwyvGH0JloViwW-42" edge="1">
                    <mxGeometry relative="1" as="geometry"/>
                </mxCell>
                <mxCell id="iTRLX2iwyvGH0JloViwW-44" value="2 Battery LiFePO4&lt;br&gt;12 V - 100 Ah&lt;br&gt;(in parallel)" style="rounded=0;whiteSpace=wrap;html=1;" parent="1" vertex="1">
                    <mxGeometry x="730" y="333" width="120" height="60" as="geometry"/>
                </mxCell>
                <mxCell id="iTRLX2iwyvGH0JloViwW-49" style="edgeStyle=orthogonalEdgeStyle;rounded=0;html=1;exitX=0;exitY=0.75;exitDx=0;exitDy=0;entryX=0;entryY=0.75;entryDx=0;entryDy=0;strokeColor=#000000;endArrow=none;endFill=0;" parent="1" source="iTRLX2iwyvGH0JloViwW-42" target="iTRLX2iwyvGH0JloViwW-44" edge="1">
                    <mxGeometry relative="1" as="geometry">
                        <Array as="points">
                            <mxPoint x="690" y="462"/>
                            <mxPoint x="690" y="378"/>
                        </Array>
                    </mxGeometry>
                </mxCell>
                <mxCell id="qoRzXvIuK7zQw0bLxEC5-16" style="edgeStyle=orthogonalEdgeStyle;rounded=0;jumpStyle=none;jumpSize=7;html=1;exitX=1;exitY=0.8;exitDx=0;exitDy=0;entryX=1;entryY=0.75;entryDx=0;entryDy=0;strokeColor=#FF0000;strokeWidth=1;fontFamily=Helvetica;fontSize=6;fontColor=#FF0000;endArrow=none;endFill=0;targetPerimeterSpacing=0;" parent="1" source="qoRzXvIuK7zQw0bLxEC5-5" target="iTRLX2iwyvGH0JloViwW-31" edge="1">
                    <mxGeometry relative="1" as="geometry"/>
                </mxCell>
                <mxCell id="qoRzXvIuK7zQw0bLxEC5-5" value="&lt;p style=&quot;line-height: 0%;&quot;&gt;&lt;font style=&quot;font-size: 6px;&quot;&gt;Circuit breaker&lt;/font&gt;&lt;/p&gt;" style="pointerEvents=1;verticalLabelPosition=top;shadow=0;dashed=0;align=center;html=1;verticalAlign=middle;shape=mxgraph.electrical.electro-mechanical.circuitBreaker2;elSwitchState=on;rounded=0;labelBackgroundColor=none;comic=0;strokeColor=#FF0000;fontFamily=Helvetica;fontSize=9;fontColor=#FF0000;fillColor=none;rotation=-90;horizontal=1;labelPosition=center;" parent="1" vertex="1">
                    <mxGeometry x="555" y="255" width="45" height="12" as="geometry"/>
                </mxCell>
                <mxCell id="qoRzXvIuK7zQw0bLxEC5-13" value="" style="endArrow=none;html=1;rounded=0;strokeColor=#000000;strokeWidth=1;fontFamily=Helvetica;fontSize=6;fontColor=#FF0000;dashed=1;dashPattern=12 12;targetPerimeterSpacing=0;jumpSize=7;jumpStyle=none;" parent="1" edge="1">
                    <mxGeometry width="50" height="50" relative="1" as="geometry">
                        <mxPoint x="36.57142857142857" y="600" as="sourcePoint"/>
                        <mxPoint x="1001.7142857142857" y="600" as="targetPoint"/>
                    </mxGeometry>
                </mxCell>
                <mxCell id="qoRzXvIuK7zQw0bLxEC5-18" value="" style="endArrow=oval;html=1;rounded=0;strokeColor=#FF0000;strokeWidth=1;fontFamily=Helvetica;fontSize=6;fontColor=#FF0000;targetPerimeterSpacing=0;jumpStyle=none;jumpSize=7;endFill=1;" parent="1" edge="1">
                    <mxGeometry width="50" height="50" relative="1" as="geometry">
                        <mxPoint x="440" y="740" as="sourcePoint"/>
                        <mxPoint x="440" y="640" as="targetPoint"/>
                    </mxGeometry>
                </mxCell>
                <mxCell id="qoRzXvIuK7zQw0bLxEC5-22" value="24V" style="edgeLabel;html=1;align=center;verticalAlign=bottom;resizable=0;points=[];fontSize=8;fontFamily=Helvetica;fontColor=#FF0000;labelBorderColor=none;labelBackgroundColor=none;horizontal=0;rounded=0;" parent="qoRzXvIuK7zQw0bLxEC5-18" vertex="1" connectable="0">
                    <mxGeometry x="0.3522" relative="1" as="geometry">
                        <mxPoint as="offset"/>
                    </mxGeometry>
                </mxCell>
                <mxCell id="qoRzXvIuK7zQw0bLxEC5-19" value="" style="endArrow=oval;html=1;rounded=0;strokeColor=#000000;strokeWidth=1;fontFamily=Helvetica;fontSize=6;fontColor=#FF0000;targetPerimeterSpacing=0;jumpStyle=none;jumpSize=7;endFill=1;" parent="1" edge="1">
                    <mxGeometry width="50" height="50" relative="1" as="geometry">
                        <mxPoint x="480" y="740" as="sourcePoint"/>
                        <mxPoint x="480" y="640" as="targetPoint"/>
                    </mxGeometry>
                </mxCell>
                <mxCell id="qoRzXvIuK7zQw0bLxEC5-20" value="&lt;font color=&quot;#4d4d4d&quot; style=&quot;font-size: 10px;&quot;&gt;DC loads&lt;/font&gt;" style="rounded=0;html=1;labelBackgroundColor=none;comic=0;strokeColor=#4D4D4D;strokeWidth=1;fontFamily=Helvetica;fontSize=6;fontColor=default;fillColor=none;dashed=1;dashPattern=8 8;verticalAlign=top;align=left;whiteSpace=wrap;connectable=0;" parent="1" vertex="1">
                    <mxGeometry x="135" y="710" width="1195" height="525" as="geometry"/>
                </mxCell>
                <mxCell id="qoRzXvIuK7zQw0bLxEC5-27" style="edgeStyle=orthogonalEdgeStyle;rounded=0;jumpStyle=none;jumpSize=7;html=1;exitX=0.25;exitY=0;exitDx=0;exitDy=0;strokeColor=#FF0000;strokeWidth=1;fontFamily=Helvetica;fontSize=10;fontColor=#4D4D4D;endArrow=none;endFill=0;targetPerimeterSpacing=0;" parent="1" source="qoRzXvIuK7zQw0bLxEC5-25" edge="1">
                    <mxGeometry relative="1" as="geometry">
                        <mxPoint x="440" y="740" as="targetPoint"/>
                        <Array as="points">
                            <mxPoint x="315" y="740"/>
                        </Array>
                    </mxGeometry>
                </mxCell>
                <mxCell id="qoRzXvIuK7zQw0bLxEC5-28" style="edgeStyle=orthogonalEdgeStyle;rounded=0;jumpStyle=none;jumpSize=7;html=1;exitX=0.75;exitY=0;exitDx=0;exitDy=0;strokeColor=#000000;strokeWidth=1;fontFamily=Helvetica;fontSize=10;fontColor=#4D4D4D;endArrow=none;endFill=0;targetPerimeterSpacing=0;" parent="1" source="qoRzXvIuK7zQw0bLxEC5-25" edge="1">
                    <mxGeometry relative="1" as="geometry">
                        <mxPoint x="480" y="740" as="targetPoint"/>
                        <Array as="points">
                            <mxPoint x="375" y="760"/>
                            <mxPoint x="480" y="760"/>
                        </Array>
                    </mxGeometry>
                </mxCell>
                <mxCell id="qoRzXvIuK7zQw0bLxEC5-41" style="edgeStyle=orthogonalEdgeStyle;rounded=0;jumpStyle=none;jumpSize=7;html=1;exitX=0.75;exitY=1;exitDx=0;exitDy=0;entryX=0;entryY=0.5;entryDx=0;entryDy=0;strokeColor=#000000;strokeWidth=1;fontFamily=Helvetica;fontSize=10;fontColor=#4D4D4D;endArrow=none;endFill=0;targetPerimeterSpacing=0;" parent="1" source="qoRzXvIuK7zQw0bLxEC5-25" target="qoRzXvIuK7zQw0bLxEC5-40" edge="1">
                    <mxGeometry relative="1" as="geometry"/>
                </mxCell>
                <mxCell id="qoRzXvIuK7zQw0bLxEC5-44" style="edgeStyle=orthogonalEdgeStyle;rounded=0;jumpStyle=none;jumpSize=7;html=1;exitX=1;exitY=0.5;exitDx=0;exitDy=0;entryX=0;entryY=0.25;entryDx=0;entryDy=0;strokeColor=#FF0000;strokeWidth=1;fontFamily=Helvetica;fontSize=10;fontColor=#4D4D4D;endArrow=none;endFill=0;targetPerimeterSpacing=0;startArrow=none;exitPerimeter=0;" parent="1" source="qoRzXvIuK7zQw0bLxEC5-63" target="qoRzXvIuK7zQw0bLxEC5-40" edge="1">
                    <mxGeometry relative="1" as="geometry"/>
                </mxCell>
                <mxCell id="qoRzXvIuK7zQw0bLxEC5-68" style="edgeStyle=orthogonalEdgeStyle;rounded=0;jumpStyle=none;jumpSize=7;html=1;exitX=0.75;exitY=1;exitDx=0;exitDy=0;strokeColor=#000000;strokeWidth=1;fontFamily=Helvetica;fontSize=6;fontColor=#000000;endArrow=oval;endFill=1;targetPerimeterSpacing=0;" parent="1" source="qoRzXvIuK7zQw0bLxEC5-25" edge="1">
                    <mxGeometry relative="1" as="geometry">
                        <mxPoint x="65" y="935" as="targetPoint"/>
                        <Array as="points">
                            <mxPoint x="375" y="935"/>
                        </Array>
                    </mxGeometry>
                </mxCell>
                <mxCell id="qoRzXvIuK7zQw0bLxEC5-25" value="Converter 24V / 12 V&lt;br&gt;Isolated (240 W)" style="rounded=0;whiteSpace=wrap;html=1;fontSize=10;" parent="1" vertex="1">
                    <mxGeometry x="285" y="775" width="120" height="35" as="geometry"/>
                </mxCell>
                <mxCell id="qoRzXvIuK7zQw0bLxEC5-35" style="edgeStyle=orthogonalEdgeStyle;rounded=0;jumpStyle=none;jumpSize=7;html=1;exitX=0;exitY=0.5;exitDx=0;exitDy=0;strokeColor=#FF0000;strokeWidth=1;fontFamily=Helvetica;fontSize=10;fontColor=#4D4D4D;endArrow=none;endFill=0;targetPerimeterSpacing=0;startArrow=none;exitPerimeter=0;" parent="1" source="qoRzXvIuK7zQw0bLxEC5-48" edge="1">
                    <mxGeometry relative="1" as="geometry">
                        <mxPoint x="440" y="740" as="targetPoint"/>
                    </mxGeometry>
                </mxCell>
                <mxCell id="qoRzXvIuK7zQw0bLxEC5-37" style="edgeStyle=orthogonalEdgeStyle;rounded=0;jumpStyle=none;jumpSize=7;html=1;exitX=0;exitY=0.5;exitDx=0;exitDy=0;strokeColor=#000000;strokeWidth=1;fontFamily=Helvetica;fontSize=10;fontColor=#4D4D4D;endArrow=none;endFill=0;targetPerimeterSpacing=0;" parent="1" source="qoRzXvIuK7zQw0bLxEC5-29" edge="1">
                    <mxGeometry relative="1" as="geometry">
                        <mxPoint x="480" y="759.6" as="targetPoint"/>
                    </mxGeometry>
                </mxCell>
                <mxCell id="ZEwb1qzO-tWvV9XbbaG9-11" style="edgeStyle=none;html=1;exitX=1;exitY=0.75;exitDx=0;exitDy=0;entryX=0;entryY=0.75;entryDx=0;entryDy=0;strokeColor=#00FF00;fontSize=10;endArrow=none;endFill=0;rounded=0;" parent="1" source="qoRzXvIuK7zQw0bLxEC5-29" target="ZEwb1qzO-tWvV9XbbaG9-7" edge="1">
                    <mxGeometry relative="1" as="geometry"/>
                </mxCell>
                <mxCell id="ZEwb1qzO-tWvV9XbbaG9-12" style="edgeStyle=none;html=1;exitX=1;exitY=0.25;exitDx=0;exitDy=0;entryX=0;entryY=0.25;entryDx=0;entryDy=0;strokeColor=#FF0000;fontSize=10;endArrow=none;endFill=0;rounded=0;" parent="1" source="qoRzXvIuK7zQw0bLxEC5-29" target="ZEwb1qzO-tWvV9XbbaG9-7" edge="1">
                    <mxGeometry relative="1" as="geometry"/>
                </mxCell>
                <mxCell id="ZEwb1qzO-tWvV9XbbaG9-13" style="edgeStyle=none;html=1;exitX=1;exitY=0.5;exitDx=0;exitDy=0;entryX=0;entryY=0.5;entryDx=0;entryDy=0;strokeColor=#000000;fontSize=10;endArrow=none;endFill=0;rounded=0;" parent="1" source="qoRzXvIuK7zQw0bLxEC5-29" target="ZEwb1qzO-tWvV9XbbaG9-7" edge="1">
                    <mxGeometry relative="1" as="geometry"/>
                </mxCell>
                <mxCell id="qoRzXvIuK7zQw0bLxEC5-29" value="Stepper motor controlleur" style="rounded=0;whiteSpace=wrap;html=1;fontSize=10;" parent="1" vertex="1">
                    <mxGeometry x="625" y="820" width="110" height="40" as="geometry"/>
                </mxCell>
                <mxCell id="qoRzXvIuK7zQw0bLxEC5-34" style="edgeStyle=orthogonalEdgeStyle;rounded=0;jumpStyle=none;jumpSize=7;html=1;exitX=0;exitY=0.5;exitDx=0;exitDy=0;strokeColor=#000000;strokeWidth=1;fontFamily=Helvetica;fontSize=10;fontColor=#4D4D4D;endArrow=none;endFill=0;targetPerimeterSpacing=0;" parent="1" source="qoRzXvIuK7zQw0bLxEC5-32" edge="1">
                    <mxGeometry relative="1" as="geometry">
                        <mxPoint x="480" y="840" as="targetPoint"/>
                        <Array as="points">
                            <mxPoint x="480" y="900"/>
                        </Array>
                    </mxGeometry>
                </mxCell>
                <mxCell id="qoRzXvIuK7zQw0bLxEC5-36" style="edgeStyle=orthogonalEdgeStyle;rounded=0;jumpStyle=none;jumpSize=7;html=1;exitX=0;exitY=0.5;exitDx=0;exitDy=0;strokeColor=#FF0000;strokeWidth=1;fontFamily=Helvetica;fontSize=10;fontColor=#4D4D4D;endArrow=none;endFill=0;targetPerimeterSpacing=0;startArrow=none;exitPerimeter=0;" parent="1" source="qoRzXvIuK7zQw0bLxEC5-49" edge="1">
                    <mxGeometry relative="1" as="geometry">
                        <mxPoint x="440" y="830" as="targetPoint"/>
                    </mxGeometry>
                </mxCell>
                <mxCell id="ZEwb1qzO-tWvV9XbbaG9-9" style="edgeStyle=none;html=1;exitX=1;exitY=0.25;exitDx=0;exitDy=0;entryX=0;entryY=0.25;entryDx=0;entryDy=0;strokeColor=#FF0000;fontSize=10;endArrow=none;endFill=0;rounded=0;" parent="1" source="qoRzXvIuK7zQw0bLxEC5-32" target="ZEwb1qzO-tWvV9XbbaG9-8" edge="1">
                    <mxGeometry relative="1" as="geometry"/>
                </mxCell>
                <mxCell id="ZEwb1qzO-tWvV9XbbaG9-10" style="edgeStyle=none;html=1;exitX=1;exitY=0.75;exitDx=0;exitDy=0;entryX=0;entryY=0.75;entryDx=0;entryDy=0;strokeColor=#00FF00;fontSize=10;endArrow=none;endFill=0;rounded=0;" parent="1" source="qoRzXvIuK7zQw0bLxEC5-32" target="ZEwb1qzO-tWvV9XbbaG9-8" edge="1">
                    <mxGeometry relative="1" as="geometry"/>
                </mxCell>
                <mxCell id="ZEwb1qzO-tWvV9XbbaG9-14" value="" style="edgeStyle=none;html=1;strokeColor=#000000;fontSize=10;endArrow=none;endFill=0;rounded=0;" parent="1" source="qoRzXvIuK7zQw0bLxEC5-32" target="ZEwb1qzO-tWvV9XbbaG9-8" edge="1">
                    <mxGeometry relative="1" as="geometry"/>
                </mxCell>
                <mxCell id="qoRzXvIuK7zQw0bLxEC5-32" value="Stepper motor controlleur" style="rounded=0;whiteSpace=wrap;html=1;fontSize=10;" parent="1" vertex="1">
                    <mxGeometry x="625" y="880" width="110" height="40" as="geometry"/>
                </mxCell>
                <mxCell id="qoRzXvIuK7zQw0bLxEC5-43" style="edgeStyle=orthogonalEdgeStyle;rounded=0;jumpStyle=none;jumpSize=7;html=1;exitX=0;exitY=0.5;exitDx=0;exitDy=0;strokeColor=#000000;strokeWidth=1;fontFamily=Helvetica;fontSize=10;fontColor=#4D4D4D;endArrow=none;endFill=0;targetPerimeterSpacing=0;" parent="1" source="qoRzXvIuK7zQw0bLxEC5-38" edge="1">
                    <mxGeometry relative="1" as="geometry">
                        <mxPoint x="375" y="980" as="targetPoint"/>
                        <Array as="points">
                            <mxPoint x="375" y="980"/>
                        </Array>
                    </mxGeometry>
                </mxCell>
                <mxCell id="qoRzXvIuK7zQw0bLxEC5-46" style="edgeStyle=orthogonalEdgeStyle;rounded=0;jumpStyle=none;jumpSize=7;html=1;exitX=0;exitY=0.25;exitDx=0;exitDy=0;strokeColor=#FF0000;strokeWidth=1;fontFamily=Helvetica;fontSize=10;fontColor=#4D4D4D;endArrow=none;endFill=0;targetPerimeterSpacing=0;" parent="1" source="qoRzXvIuK7zQw0bLxEC5-38" edge="1">
                    <mxGeometry relative="1" as="geometry">
                        <mxPoint x="315" y="970" as="targetPoint"/>
                    </mxGeometry>
                </mxCell>
                <mxCell id="ZEwb1qzO-tWvV9XbbaG9-21" style="edgeStyle=none;html=1;exitX=1;exitY=0.25;exitDx=0;exitDy=0;strokeColor=#FF0000;fontSize=10;endArrow=none;endFill=0;rounded=0;" parent="1" source="qoRzXvIuK7zQw0bLxEC5-38" edge="1">
                    <mxGeometry relative="1" as="geometry">
                        <mxPoint x="560" y="970.054054054054" as="targetPoint"/>
                    </mxGeometry>
                </mxCell>
                <mxCell id="ZEwb1qzO-tWvV9XbbaG9-22" value="" style="edgeStyle=none;html=1;strokeColor=#000000;fontSize=10;endArrow=none;endFill=0;rounded=0;" parent="1" source="qoRzXvIuK7zQw0bLxEC5-38" target="ZEwb1qzO-tWvV9XbbaG9-15" edge="1">
                    <mxGeometry relative="1" as="geometry"/>
                </mxCell>
                <mxCell id="ZEwb1qzO-tWvV9XbbaG9-27" style="edgeStyle=none;html=1;exitX=1;exitY=0.75;exitDx=0;exitDy=0;entryX=0;entryY=0.75;entryDx=0;entryDy=0;strokeColor=#00FF00;fontSize=10;endArrow=none;endFill=0;rounded=0;" parent="1" source="qoRzXvIuK7zQw0bLxEC5-38" target="ZEwb1qzO-tWvV9XbbaG9-15" edge="1">
                    <mxGeometry relative="1" as="geometry"/>
                </mxCell>
                <mxCell id="qoRzXvIuK7zQw0bLxEC5-38" value="Actuator controlleur" style="rounded=0;whiteSpace=wrap;html=1;fontSize=10;" parent="1" vertex="1">
                    <mxGeometry x="420" y="960" width="110" height="40" as="geometry"/>
                </mxCell>
                <mxCell id="qoRzXvIuK7zQw0bLxEC5-42" style="edgeStyle=orthogonalEdgeStyle;rounded=0;jumpStyle=none;jumpSize=7;html=1;exitX=0;exitY=0.5;exitDx=0;exitDy=0;strokeColor=#000000;strokeWidth=1;fontFamily=Helvetica;fontSize=10;fontColor=#4D4D4D;endArrow=none;endFill=0;targetPerimeterSpacing=0;" parent="1" source="qoRzXvIuK7zQw0bLxEC5-39" edge="1">
                    <mxGeometry relative="1" as="geometry">
                        <mxPoint x="375" y="1040" as="targetPoint"/>
                        <Array as="points">
                            <mxPoint x="375" y="1040"/>
                        </Array>
                    </mxGeometry>
                </mxCell>
                <mxCell id="qoRzXvIuK7zQw0bLxEC5-45" style="edgeStyle=orthogonalEdgeStyle;rounded=0;jumpStyle=none;jumpSize=7;html=1;exitX=0;exitY=0.25;exitDx=0;exitDy=0;strokeColor=#FF0000;strokeWidth=1;fontFamily=Helvetica;fontSize=10;fontColor=#4D4D4D;endArrow=none;endFill=0;targetPerimeterSpacing=0;" parent="1" source="qoRzXvIuK7zQw0bLxEC5-39" edge="1">
                    <mxGeometry relative="1" as="geometry">
                        <mxPoint x="315" y="1030" as="targetPoint"/>
                    </mxGeometry>
                </mxCell>
                <mxCell id="ZEwb1qzO-tWvV9XbbaG9-23" value="" style="edgeStyle=none;html=1;strokeColor=#000000;fontSize=10;endArrow=none;endFill=0;rounded=0;" parent="1" source="qoRzXvIuK7zQw0bLxEC5-39" target="ZEwb1qzO-tWvV9XbbaG9-16" edge="1">
                    <mxGeometry relative="1" as="geometry"/>
                </mxCell>
                <mxCell id="ZEwb1qzO-tWvV9XbbaG9-26" style="edgeStyle=none;html=1;exitX=1;exitY=0.25;exitDx=0;exitDy=0;entryX=0;entryY=0.25;entryDx=0;entryDy=0;strokeColor=#FF0000;fontSize=10;endArrow=none;endFill=0;rounded=0;" parent="1" source="qoRzXvIuK7zQw0bLxEC5-39" target="ZEwb1qzO-tWvV9XbbaG9-16" edge="1">
                    <mxGeometry relative="1" as="geometry"/>
                </mxCell>
                <mxCell id="ZEwb1qzO-tWvV9XbbaG9-28" style="edgeStyle=none;html=1;exitX=1;exitY=0.75;exitDx=0;exitDy=0;entryX=0;entryY=0.75;entryDx=0;entryDy=0;strokeColor=#00FF00;fontSize=10;endArrow=none;endFill=0;rounded=0;" parent="1" source="qoRzXvIuK7zQw0bLxEC5-39" target="ZEwb1qzO-tWvV9XbbaG9-16" edge="1">
                    <mxGeometry relative="1" as="geometry"/>
                </mxCell>
                <mxCell id="qoRzXvIuK7zQw0bLxEC5-39" value="Actuator controlleur" style="rounded=0;whiteSpace=wrap;html=1;fontSize=10;" parent="1" vertex="1">
                    <mxGeometry x="420" y="1020" width="110" height="40" as="geometry"/>
                </mxCell>
                <mxCell id="ZEwb1qzO-tWvV9XbbaG9-24" value="" style="edgeStyle=none;html=1;strokeColor=#000000;fontSize=10;endArrow=none;endFill=0;rounded=0;" parent="1" source="qoRzXvIuK7zQw0bLxEC5-40" target="ZEwb1qzO-tWvV9XbbaG9-17" edge="1">
                    <mxGeometry relative="1" as="geometry"/>
                </mxCell>
                <mxCell id="ZEwb1qzO-tWvV9XbbaG9-25" style="edgeStyle=none;html=1;exitX=1;exitY=0.25;exitDx=0;exitDy=0;entryX=0;entryY=0.25;entryDx=0;entryDy=0;strokeColor=#FF0000;fontSize=10;endArrow=none;endFill=0;rounded=0;" parent="1" source="qoRzXvIuK7zQw0bLxEC5-40" target="ZEwb1qzO-tWvV9XbbaG9-17" edge="1">
                    <mxGeometry relative="1" as="geometry"/>
                </mxCell>
                <mxCell id="ZEwb1qzO-tWvV9XbbaG9-29" style="edgeStyle=none;html=1;exitX=1;exitY=0.75;exitDx=0;exitDy=0;entryX=0;entryY=0.75;entryDx=0;entryDy=0;strokeColor=#00FF00;fontSize=10;endArrow=none;endFill=0;rounded=0;" parent="1" source="qoRzXvIuK7zQw0bLxEC5-40" target="ZEwb1qzO-tWvV9XbbaG9-17" edge="1">
                    <mxGeometry relative="1" as="geometry"/>
                </mxCell>
                <mxCell id="qoRzXvIuK7zQw0bLxEC5-40" value="Actuator controlleur" style="rounded=0;whiteSpace=wrap;html=1;fontSize=10;" parent="1" vertex="1">
                    <mxGeometry x="420" y="1080" width="110" height="40" as="geometry"/>
                </mxCell>
                <mxCell id="ZEwb1qzO-tWvV9XbbaG9-6" style="edgeStyle=none;html=1;exitX=1;exitY=0.5;exitDx=0;exitDy=0;exitPerimeter=0;entryX=0;entryY=0.25;entryDx=0;entryDy=0;strokeColor=#FF0000;endArrow=none;endFill=0;rounded=0;" parent="1" source="qoRzXvIuK7zQw0bLxEC5-48" target="qoRzXvIuK7zQw0bLxEC5-29" edge="1">
                    <mxGeometry relative="1" as="geometry"/>
                </mxCell>
                <mxCell id="qoRzXvIuK7zQw0bLxEC5-48" value="" style="pointerEvents=1;verticalLabelPosition=bottom;shadow=0;dashed=0;align=center;html=1;verticalAlign=top;shape=mxgraph.electrical.miscellaneous.fuse_1;fillColor=#FFFFFF;strokeColor=#FF0000;rounded=0;" parent="1" vertex="1">
                    <mxGeometry x="480" y="825" width="50" height="10" as="geometry"/>
                </mxCell>
                <mxCell id="ZEwb1qzO-tWvV9XbbaG9-5" style="edgeStyle=none;html=1;exitX=1;exitY=0.5;exitDx=0;exitDy=0;exitPerimeter=0;entryX=0;entryY=0.25;entryDx=0;entryDy=0;strokeColor=#FF0000;endArrow=none;endFill=0;rounded=0;" parent="1" source="qoRzXvIuK7zQw0bLxEC5-49" target="qoRzXvIuK7zQw0bLxEC5-32" edge="1">
                    <mxGeometry relative="1" as="geometry"/>
                </mxCell>
                <mxCell id="qoRzXvIuK7zQw0bLxEC5-49" value="" style="pointerEvents=1;verticalLabelPosition=bottom;shadow=0;dashed=0;align=center;html=1;verticalAlign=top;shape=mxgraph.electrical.miscellaneous.fuse_1;fillColor=#FFFFFF;strokeColor=#FF0000;rounded=0;" parent="1" vertex="1">
                    <mxGeometry x="480" y="885" width="50" height="10" as="geometry"/>
                </mxCell>
                <mxCell id="qoRzXvIuK7zQw0bLxEC5-64" value="" style="edgeStyle=orthogonalEdgeStyle;rounded=0;jumpStyle=none;jumpSize=7;html=1;exitX=0.25;exitY=1;exitDx=0;exitDy=0;entryX=0;entryY=0.5;entryDx=0;entryDy=0;strokeColor=#FF0000;strokeWidth=1;fontFamily=Helvetica;fontSize=10;fontColor=#4D4D4D;endArrow=none;endFill=0;entryPerimeter=0;" parent="1" source="qoRzXvIuK7zQw0bLxEC5-25" target="qoRzXvIuK7zQw0bLxEC5-63" edge="1">
                    <mxGeometry relative="1" as="geometry">
                        <mxPoint x="315" y="810" as="sourcePoint"/>
                        <mxPoint x="420" y="1090" as="targetPoint"/>
                    </mxGeometry>
                </mxCell>
                <mxCell id="qoRzXvIuK7zQw0bLxEC5-65" value="12 V" style="edgeLabel;html=1;align=center;verticalAlign=bottom;resizable=0;points=[];fontSize=8;fontFamily=Helvetica;fontColor=#FF0000;horizontal=0;labelBackgroundColor=none;rounded=0;" parent="qoRzXvIuK7zQw0bLxEC5-64" vertex="1" connectable="0">
                    <mxGeometry x="-0.8165" y="-1" relative="1" as="geometry">
                        <mxPoint x="1" y="25" as="offset"/>
                    </mxGeometry>
                </mxCell>
                <mxCell id="qoRzXvIuK7zQw0bLxEC5-67" style="edgeStyle=orthogonalEdgeStyle;rounded=0;jumpStyle=none;jumpSize=7;html=1;exitX=0;exitY=0.5;exitDx=0;exitDy=0;exitPerimeter=0;strokeColor=#FF0000;strokeWidth=1;fontFamily=Helvetica;fontSize=6;fontColor=#FF0000;endArrow=oval;endFill=1;targetPerimeterSpacing=0;startArrow=none;" parent="1" source="qoRzXvIuK7zQw0bLxEC5-70" edge="1">
                    <mxGeometry relative="1" as="geometry">
                        <mxPoint x="65" y="865" as="targetPoint"/>
                        <Array as="points">
                            <mxPoint x="65" y="865"/>
                        </Array>
                    </mxGeometry>
                </mxCell>
                <mxCell id="qoRzXvIuK7zQw0bLxEC5-63" value="" style="pointerEvents=1;verticalLabelPosition=bottom;shadow=0;dashed=0;align=center;html=1;verticalAlign=top;shape=mxgraph.electrical.miscellaneous.fuse_1;fillColor=#FFFFFF;strokeColor=#FF0000;direction=south;rounded=0;" parent="1" vertex="1">
                    <mxGeometry x="310" y="865" width="10" height="50" as="geometry"/>
                </mxCell>
                <mxCell id="qoRzXvIuK7zQw0bLxEC5-69" value="&lt;b&gt;LEVEL 2&lt;/b&gt;" style="text;html=1;align=center;verticalAlign=middle;resizable=0;points=[];autosize=1;strokeColor=none;fillColor=none;fontSize=6;fontFamily=Helvetica;fontColor=#000000;rounded=0;" parent="1" vertex="1">
                    <mxGeometry x="30" y="887.5" width="45" height="25" as="geometry"/>
                </mxCell>
                <mxCell id="qoRzXvIuK7zQw0bLxEC5-71" value="" style="edgeStyle=orthogonalEdgeStyle;rounded=0;jumpStyle=none;jumpSize=7;html=1;exitX=0;exitY=0.5;exitDx=0;exitDy=0;exitPerimeter=0;strokeColor=#FF0000;strokeWidth=1;fontFamily=Helvetica;fontSize=6;fontColor=#FF0000;endArrow=none;endFill=1;" parent="1" source="qoRzXvIuK7zQw0bLxEC5-63" target="qoRzXvIuK7zQw0bLxEC5-70" edge="1">
                    <mxGeometry relative="1" as="geometry">
                        <mxPoint x="65" y="865" as="targetPoint"/>
                        <mxPoint x="315" y="865" as="sourcePoint"/>
                        <Array as="points">
                            <mxPoint x="310" y="865"/>
                            <mxPoint x="310" y="865"/>
                        </Array>
                    </mxGeometry>
                </mxCell>
                <mxCell id="qoRzXvIuK7zQw0bLxEC5-70" value="" style="pointerEvents=1;verticalLabelPosition=bottom;shadow=0;dashed=0;align=center;html=1;verticalAlign=top;shape=mxgraph.electrical.miscellaneous.fuse_1;fillColor=#FFFFFF;strokeColor=#FF0000;direction=west;rounded=0;" parent="1" vertex="1">
                    <mxGeometry x="265" y="860" width="50" height="10" as="geometry"/>
                </mxCell>
                <mxCell id="ZEwb1qzO-tWvV9XbbaG9-1" value="Level 2" style="text;html=1;align=center;verticalAlign=middle;resizable=0;points=[];autosize=1;strokeColor=none;fillColor=none;rounded=0;" parent="1" vertex="1">
                    <mxGeometry x="560" y="75" width="60" height="30" as="geometry"/>
                </mxCell>
                <mxCell id="ZEwb1qzO-tWvV9XbbaG9-3" value="" style="endArrow=oval;html=1;strokeColor=#FF0000;endFill=1;rounded=0;" parent="1" edge="1">
                    <mxGeometry width="50" height="50" relative="1" as="geometry">
                        <mxPoint x="581" y="175" as="sourcePoint"/>
                        <mxPoint x="581" y="109" as="targetPoint"/>
                    </mxGeometry>
                </mxCell>
                <mxCell id="ZEwb1qzO-tWvV9XbbaG9-4" value="" style="endArrow=oval;html=1;strokeColor=#000000;endFill=1;rounded=0;" parent="1" edge="1">
                    <mxGeometry width="50" height="50" relative="1" as="geometry">
                        <mxPoint x="600" y="146" as="sourcePoint"/>
                        <mxPoint x="600" y="109" as="targetPoint"/>
                    </mxGeometry>
                </mxCell>
                <mxCell id="ZEwb1qzO-tWvV9XbbaG9-7" value="Stepper motor" style="rounded=0;whiteSpace=wrap;html=1;fontSize=10;" parent="1" vertex="1">
                    <mxGeometry x="765" y="820" width="120" height="40" as="geometry"/>
                </mxCell>
                <mxCell id="ZEwb1qzO-tWvV9XbbaG9-8" value="Stepper motor" style="rounded=0;whiteSpace=wrap;html=1;fontSize=10;" parent="1" vertex="1">
                    <mxGeometry x="765" y="880" width="120" height="40" as="geometry"/>
                </mxCell>
                <mxCell id="ZEwb1qzO-tWvV9XbbaG9-15" value="Actuator" style="rounded=0;whiteSpace=wrap;html=1;fontSize=10;" parent="1" vertex="1">
                    <mxGeometry x="560" y="960" width="120" height="40" as="geometry"/>
                </mxCell>
                <mxCell id="ZEwb1qzO-tWvV9XbbaG9-16" value="Actuator" style="rounded=0;whiteSpace=wrap;html=1;fontSize=10;" parent="1" vertex="1">
                    <mxGeometry x="560" y="1020" width="120" height="40" as="geometry"/>
                </mxCell>
                <mxCell id="ZEwb1qzO-tWvV9XbbaG9-17" value="Actuator" style="rounded=0;whiteSpace=wrap;html=1;fontSize=10;" parent="1" vertex="1">
                    <mxGeometry x="560" y="1080" width="120" height="40" as="geometry"/>
                </mxCell>
            </root>
        </mxGraphModel>
    </diagram>
    <diagram id="p_5HNkVGBAhMYTABrA-K" name="Level2Diagram">
        <mxGraphModel dx="930" dy="628" grid="1" gridSize="5" guides="1" tooltips="1" connect="1" arrows="1" fold="1" page="1" pageScale="1" pageWidth="1654" pageHeight="1169" math="0" shadow="0">
            <root>
                <mxCell id="0"/>
                <mxCell id="1" parent="0"/>
                <mxCell id="6sMPyAixq23CRyamwmoz-46" value="&lt;b&gt;&lt;font color=&quot;#ff0000&quot;&gt;5 V&amp;nbsp;&lt;/font&gt;&lt;/b&gt;" style="rounded=0;whiteSpace=wrap;html=1;dashed=1;dashPattern=8 8;strokeColor=#FF0000;align=right;verticalAlign=bottom;glass=0;shadow=0;connectable=0;" vertex="1" parent="1">
                    <mxGeometry x="502.5" y="957.5" width="265" height="55" as="geometry"/>
                </mxCell>
                <mxCell id="6sMPyAixq23CRyamwmoz-33" value="&lt;b&gt;&lt;font color=&quot;#ff0000&quot;&gt;12 V&amp;nbsp;&lt;/font&gt;&lt;/b&gt;" style="rounded=0;whiteSpace=wrap;html=1;dashed=1;dashPattern=8 8;strokeColor=#FF0000;align=right;verticalAlign=bottom;glass=0;shadow=0;connectable=0;" vertex="1" parent="1">
                    <mxGeometry x="40" y="805" width="730" height="100" as="geometry"/>
                </mxCell>
                <mxCell id="HoFHOqw0-Se1LyVtuxtE-1" value="LattePanda Alpha" style="rounded=0;whiteSpace=wrap;html=1;fontSize=20;fontStyle=1" parent="1" vertex="1">
                    <mxGeometry x="105" y="170" width="800" height="410" as="geometry"/>
                </mxCell>
                <mxCell id="6sMPyAixq23CRyamwmoz-15" value="N° Connexion" style="rounded=0;whiteSpace=wrap;html=1;" vertex="1" parent="1">
                    <mxGeometry x="767.5" y="170" width="100" height="30" as="geometry"/>
                </mxCell>
                <mxCell id="6sMPyAixq23CRyamwmoz-16" value="N° Connexion" style="rounded=0;whiteSpace=wrap;html=1;" vertex="1" parent="1">
                    <mxGeometry x="642.5" y="170" width="100" height="30" as="geometry"/>
                </mxCell>
                <mxCell id="6sMPyAixq23CRyamwmoz-17" value="N° Connexion" style="rounded=0;whiteSpace=wrap;html=1;" vertex="1" parent="1">
                    <mxGeometry x="517.5" y="170" width="100" height="30" as="geometry"/>
                </mxCell>
                <mxCell id="6sMPyAixq23CRyamwmoz-18" value="N° Connexion" style="rounded=0;whiteSpace=wrap;html=1;" vertex="1" parent="1">
                    <mxGeometry x="392.5" y="170" width="100" height="30" as="geometry"/>
                </mxCell>
                <mxCell id="6sMPyAixq23CRyamwmoz-19" value="N° Connexion" style="rounded=0;whiteSpace=wrap;html=1;" vertex="1" parent="1">
                    <mxGeometry x="267.5" y="170" width="100" height="30" as="geometry"/>
                </mxCell>
                <mxCell id="6sMPyAixq23CRyamwmoz-20" value="N° Connexion" style="rounded=0;whiteSpace=wrap;html=1;" vertex="1" parent="1">
                    <mxGeometry x="142.5" y="170" width="100" height="30" as="geometry"/>
                </mxCell>
                <mxCell id="6sMPyAixq23CRyamwmoz-21" value="N° Connexion" style="rounded=0;whiteSpace=wrap;html=1;" vertex="1" parent="1">
                    <mxGeometry x="767.5" y="550" width="100" height="30" as="geometry"/>
                </mxCell>
                <mxCell id="6sMPyAixq23CRyamwmoz-22" value="N° Connexion" style="rounded=0;whiteSpace=wrap;html=1;" vertex="1" parent="1">
                    <mxGeometry x="642.5" y="550" width="100" height="30" as="geometry"/>
                </mxCell>
                <mxCell id="6sMPyAixq23CRyamwmoz-23" value="Connexion USB / LAN" style="rounded=0;whiteSpace=wrap;html=1;" vertex="1" parent="1">
                    <mxGeometry x="517.5" y="550" width="100" height="30" as="geometry"/>
                </mxCell>
                <mxCell id="6sMPyAixq23CRyamwmoz-24" value="N° Connexion" style="rounded=0;whiteSpace=wrap;html=1;" vertex="1" parent="1">
                    <mxGeometry x="392.5" y="550" width="100" height="30" as="geometry"/>
                </mxCell>
                <mxCell id="6sMPyAixq23CRyamwmoz-25" value="Connexion USB" style="rounded=0;whiteSpace=wrap;html=1;" vertex="1" parent="1">
                    <mxGeometry x="267.5" y="550" width="100" height="30" as="geometry"/>
                </mxCell>
                <mxCell id="6sMPyAixq23CRyamwmoz-26" value="Connexion LAN" style="rounded=0;whiteSpace=wrap;html=1;" vertex="1" parent="1">
                    <mxGeometry x="142.5" y="550" width="100" height="30" as="geometry"/>
                </mxCell>
                <mxCell id="6sMPyAixq23CRyamwmoz-39" style="edgeStyle=orthogonalEdgeStyle;rounded=0;html=1;exitX=0.5;exitY=0;exitDx=0;exitDy=0;entryX=0.5;entryY=1;entryDx=0;entryDy=0;fontColor=#FF0000;endArrow=none;endFill=0;shape=link;" edge="1" parent="1" source="6sMPyAixq23CRyamwmoz-27" target="6sMPyAixq23CRyamwmoz-26">
                    <mxGeometry relative="1" as="geometry"/>
                </mxCell>
                <mxCell id="6sMPyAixq23CRyamwmoz-27" value="Milesight UR35" style="rounded=0;whiteSpace=wrap;html=1;" vertex="1" parent="1">
                    <mxGeometry x="102.5" y="825" width="120" height="60" as="geometry"/>
                </mxCell>
                <mxCell id="6sMPyAixq23CRyamwmoz-38" style="edgeStyle=orthogonalEdgeStyle;html=1;exitX=0.5;exitY=0;exitDx=0;exitDy=0;entryX=0.5;entryY=1;entryDx=0;entryDy=0;fontColor=#FF0000;shape=link;rounded=0;" edge="1" parent="1" source="6sMPyAixq23CRyamwmoz-28" target="6sMPyAixq23CRyamwmoz-25">
                    <mxGeometry relative="1" as="geometry"/>
                </mxCell>
                <mxCell id="6sMPyAixq23CRyamwmoz-28" value="AIS" style="rounded=0;whiteSpace=wrap;html=1;" vertex="1" parent="1">
                    <mxGeometry x="257.5" y="825" width="120" height="60" as="geometry"/>
                </mxCell>
                <mxCell id="6sMPyAixq23CRyamwmoz-47" style="edgeStyle=orthogonalEdgeStyle;rounded=0;html=1;exitX=0.5;exitY=0;exitDx=0;exitDy=0;entryX=0.5;entryY=1;entryDx=0;entryDy=0;fontColor=#FF0000;endArrow=none;endFill=0;" edge="1" parent="1" source="6sMPyAixq23CRyamwmoz-30" target="6sMPyAixq23CRyamwmoz-24">
                    <mxGeometry relative="1" as="geometry"/>
                </mxCell>
                <mxCell id="6sMPyAixq23CRyamwmoz-30" value="Iridium" style="rounded=0;whiteSpace=wrap;html=1;" vertex="1" parent="1">
                    <mxGeometry x="415" y="825" width="120" height="60" as="geometry"/>
                </mxCell>
                <mxCell id="6sMPyAixq23CRyamwmoz-40" style="edgeStyle=orthogonalEdgeStyle;shape=link;rounded=0;html=1;exitX=0.5;exitY=0;exitDx=0;exitDy=0;entryX=0.5;entryY=1;entryDx=0;entryDy=0;fontColor=#FF0000;endArrow=none;endFill=0;" edge="1" parent="1" source="6sMPyAixq23CRyamwmoz-31" target="6sMPyAixq23CRyamwmoz-23">
                    <mxGeometry relative="1" as="geometry"/>
                </mxCell>
                <mxCell id="6sMPyAixq23CRyamwmoz-31" value="Jetson Nano" style="rounded=0;whiteSpace=wrap;html=1;" vertex="1" parent="1">
                    <mxGeometry x="575" y="825" width="120" height="60" as="geometry"/>
                </mxCell>
                <mxCell id="6sMPyAixq23CRyamwmoz-45" style="edgeStyle=orthogonalEdgeStyle;rounded=0;html=1;exitX=0.5;exitY=0;exitDx=0;exitDy=0;entryX=0.25;entryY=1;entryDx=0;entryDy=0;fontColor=#FF0000;endArrow=none;endFill=0;" edge="1" parent="1" source="6sMPyAixq23CRyamwmoz-42" target="6sMPyAixq23CRyamwmoz-31">
                    <mxGeometry relative="1" as="geometry"/>
                </mxCell>
                <mxCell id="6sMPyAixq23CRyamwmoz-42" value="Camera 1" style="rounded=0;whiteSpace=wrap;html=1;" vertex="1" parent="1">
                    <mxGeometry x="535" y="970" width="92.5" height="30" as="geometry"/>
                </mxCell>
                <mxCell id="6sMPyAixq23CRyamwmoz-44" style="edgeStyle=orthogonalEdgeStyle;rounded=0;html=1;exitX=0.5;exitY=0;exitDx=0;exitDy=0;entryX=0.783;entryY=1.005;entryDx=0;entryDy=0;entryPerimeter=0;fontColor=#FF0000;endArrow=none;endFill=0;" edge="1" parent="1" source="6sMPyAixq23CRyamwmoz-43" target="6sMPyAixq23CRyamwmoz-31">
                    <mxGeometry relative="1" as="geometry"/>
                </mxCell>
                <mxCell id="6sMPyAixq23CRyamwmoz-43" value="Camera 2" style="rounded=0;whiteSpace=wrap;html=1;" vertex="1" parent="1">
                    <mxGeometry x="646.25" y="970" width="92.5" height="30" as="geometry"/>
                </mxCell>
                <mxCell id="6sMPyAixq23CRyamwmoz-50" value="Capteur" style="text;html=1;strokeColor=none;fillColor=none;align=center;verticalAlign=middle;whiteSpace=wrap;rounded=0;shadow=0;glass=0;dashed=1;dashPattern=8 8;sketch=0;fontSize=20;fontColor=#FF0000;" vertex="1" parent="1">
                    <mxGeometry x="475" y="215" width="60" height="30" as="geometry"/>
                </mxCell>
                <mxCell id="6sMPyAixq23CRyamwmoz-51" value="Équipement" style="text;html=1;strokeColor=none;fillColor=none;align=center;verticalAlign=middle;whiteSpace=wrap;rounded=0;shadow=0;glass=0;dashed=1;dashPattern=8 8;sketch=0;fontSize=20;fontColor=#FF0000;" vertex="1" parent="1">
                    <mxGeometry x="445" y="505" width="120" height="30" as="geometry"/>
                </mxCell>
            </root>
        </mxGraphModel>
    </diagram>
</mxfile>